<svg xmlns="http://www.w3.org/2000/svg" xmlns:xlink="http://www.w3.org/1999/xlink" width="40" zoomAndPan="magnify" viewBox="0 0 810 809.999993" height="40" preserveAspectRatio="xMidYMid meet" version="1.0"><defs><clipPath id="49ef2a9773"><path d="M 133.191406 133.191406 L 676.808594 133.191406 L 676.808594 676.808594 L 133.191406 676.808594 Z M 133.191406 133.191406 " clip-rule="nonzero"/></clipPath><clipPath id="350ad6b333"><path d="M 405 133.191406 C 254.882812 133.191406 133.191406 254.882812 133.191406 405 C 133.191406 555.117188 254.882812 676.808594 405 676.808594 C 555.117188 676.808594 676.808594 555.117188 676.808594 405 C 676.808594 254.882812 555.117188 133.191406 405 133.191406 Z M 405 133.191406 " clip-rule="nonzero"/></clipPath><clipPath id="a1b6b8ecd0"><path d="M 239.253906 241.742188 L 566 241.742188 L 566 567.992188 L 239.253906 567.992188 Z M 239.253906 241.742188 " clip-rule="nonzero"/></clipPath></defs><g clip-path="url(#49ef2a9773)"><g clip-path="url(#350ad6b333)"><path fill="#000000" d="M 133.191406 133.191406 L 676.808594 133.191406 L 676.808594 676.808594 L 133.191406 676.808594 Z M 133.191406 133.191406 " fill-opacity="1" fill-rule="nonzero"/></g></g><g clip-path="url(#a1b6b8ecd0)"><path fill="#ffffff" d="M 515.691406 241.5 C 503.089844 241.5 490.464844 246.433594 480.621094 256.257812 L 478.941406 257.9375 L 549.15625 328.132812 L 550.761719 326.546875 C 570.449219 306.859375 570.449219 275.945312 550.761719 256.257812 C 540.917969 246.433594 528.292969 241.5 515.691406 241.5 Z M 449.765625 287.132812 L 290.992188 445.886719 C 288.496094 448.382812 280.164062 461.589844 272.699219 477.914062 C 258.472656 509.242188 249.003906 536.980469 239.160156 568.007812 C 265.351562 559.5625 298.886719 547.960938 329.101562 534.316406 C 345.410156 526.855469 358.785156 518.523438 361.28125 516.027344 L 520.019531 357.269531 L 449.765625 287.132812 " fill-opacity="1" fill-rule="nonzero"/></g></svg>